# xmcd
#
# Track frame offsets:
#	150
#	9317
#	22437
#	36130
#	48620
#	58672
#	72582
#	85915
#	101835
#	114717
#	123542
#	139052
#	155310
#	167280
#	177095
#	189375
#	203602
#	214572
#	223920
#	234437
#	248090
#	258475
#	268975
#	281530
#	293147
#	302245
#	317215
#	327650
#	342025
#
# Disc length: 4694 seconds
# Revision: 4
# Processed by: cddbd v1.5.2PL0 Copyright (c) Steve Scherf et al.
# Submitted via: dBpowerAMP V12.0
#
DISCID=bd12541d
DTITLE=Marty Robbins - Country 1951-1958, CD03 - CD05
DYEAR=1991
DGENRE=Country
TTITLE0=Where d'Ja Go?
TTITLE1=Most of the Time
TTITLE2=The Same Two Lips
TTITLE3=Your Heart of Blue Is Showing Through
TTITLE4=Knee Deep in the Blues
TTITLE5=The Little Rosewood Casket
TTITLE6=The Letter Edged in Black
TTITLE7=Twenty One Years
TTITLE8=The Convict and the Rose
TTITLE9=The Bus Stop Song (A Paper of Pins)
TTITLE10=The Dream of the Miner's Child
TTITLE11=The Little Box of Pine in the 7:29
TTITLE12=The Wreck of the Number Nine
TTITLE13=The Sad Lover
TTITLE14=The Little Shirt (My Mother Made for Me)
TTITLE15=My Mother Was a Lady
TTITLE16=When It's Lamplighting Time in the Valley
TTITLE17=The Wreck of the 12:56
TTITLE18=It's Too Late Now (To Worry Anymore)
TTITLE19=I Never Let You Cross My Mind
TTITLE20=I'll Step Aside
TTITLE21=Bouquet of Roses
TTITLE22=I'm So Lonesome I Could Cry
TTITLE23=Lovesick Blues
TTITLE24=Moanin' the Blues
TTITLE25=Rose of Ol' Pawnee
TTITLE26=I Hang My Head and Cry
TTITLE27=Have I Told You Lately That I Love You
TTITLE28=All the World Is Lonely Now
EXTD=
EXTT0=
EXTT1=
EXTT2=
EXTT3=
EXTT4=
EXTT5=
EXTT6=
EXTT7=
EXTT8=
EXTT9=
EXTT10=
EXTT11=
EXTT12=
EXTT13=
EXTT14=
EXTT15=
EXTT16=
EXTT17=
EXTT18=
EXTT19=
EXTT20=
EXTT21=
EXTT22=
EXTT23=
EXTT24=
EXTT25=
EXTT26=
EXTT27=
EXTT28=
PLAYORDER=
